<?xml version="1.0" encoding="utf-8"?>
<!-- Generator: Adobe Illustrator 21.0.0, SVG Export Plug-In . SVG Version: 6.00 Build 0)  -->
<svg version="1.1" id="Réteg_1" xmlns="http://www.w3.org/2000/svg" xmlns:xlink="http://www.w3.org/1999/xlink" x="0px" y="0px"
	 viewBox="0 0 180 36" style="enable-background:new 0 0 180 36;" xml:space="preserve">
<style type="text/css">
	.st0{enable-background:new    ;}
	.st1{fill:#FFFFFF;}
</style>
<g class="st0">
	<path class="st1" d="M14.9,10.6c-0.1-0.1-0.2-0.3-0.2-0.5V4.4c0-0.2,0.1-0.3,0.2-0.5s0.3-0.2,0.5-0.2c0.2,0,0.4,0.1,0.5,0.2
		C15.9,4.1,16,4.2,16,4.4v5.8c0,0.2-0.1,0.3-0.2,0.5c-0.1,0.1-0.3,0.2-0.5,0.2C15.2,10.8,15,10.8,14.9,10.6z"/>
	<path class="st1" d="M23.4,10.2c0,0.2-0.1,0.3-0.2,0.4c-0.1,0.1-0.3,0.2-0.4,0.2c-0.2,0-0.3-0.1-0.5-0.2l-3.3-3.1v2.7
		c0,0.2-0.1,0.3-0.2,0.5c-0.1,0.1-0.3,0.2-0.5,0.2c-0.2,0-0.3-0.1-0.5-0.2c-0.1-0.1-0.2-0.3-0.2-0.5V4.4c0-0.2,0.1-0.3,0.2-0.5
		s0.3-0.2,0.5-0.2c0.2,0,0.4,0.1,0.5,0.2c0.1,0.1,0.2,0.3,0.2,0.5v2.5l3.2-3c0.1-0.1,0.3-0.2,0.4-0.2c0.2,0,0.3,0.1,0.4,0.2
		s0.2,0.2,0.2,0.4c0,0.2-0.1,0.3-0.2,0.4l-2.6,2.4l2.8,2.6C23.3,9.9,23.4,10.1,23.4,10.2z"/>
	<path class="st1" d="M30.8,10.3c0,0.2-0.1,0.3-0.2,0.4c-0.1,0.1-0.3,0.2-0.4,0.2c-0.1,0-0.2,0-0.3-0.1c-0.1-0.1-0.2-0.1-0.2-0.3
		l-0.6-1.3h-3.5L25,10.5c-0.1,0.1-0.1,0.2-0.2,0.3c-0.1,0.1-0.2,0.1-0.3,0.1c-0.2,0-0.3-0.1-0.4-0.2c-0.1-0.1-0.2-0.2-0.2-0.4
		c0-0.1,0-0.2,0.1-0.3l2.7-5.8C26.7,4,26.8,3.9,27,3.9c0.1-0.1,0.3-0.1,0.4-0.1s0.3,0,0.4,0.1S27.9,4,28,4.2l2.7,5.8
		C30.8,10.1,30.8,10.2,30.8,10.3z M26.1,8.2h2.6l-1.3-2.9L26.1,8.2z"/>
	<path class="st1" d="M37.7,10.3c0,0.2-0.1,0.3-0.2,0.4c-0.1,0.1-0.3,0.1-0.4,0.1c-0.1,0-0.2,0-0.3-0.1c-0.1,0-0.2-0.1-0.2-0.2
		l-1.3-2c-0.1-0.2-0.3-0.4-0.4-0.4C34.7,8,34.5,8,34.2,8h-1v2.2c0,0.2-0.1,0.4-0.2,0.5c-0.1,0.1-0.3,0.2-0.5,0.2
		c-0.2,0-0.3-0.1-0.5-0.2c-0.1-0.1-0.2-0.3-0.2-0.5V4.4c0-0.2,0.1-0.3,0.2-0.4c0.1-0.1,0.3-0.2,0.4-0.2h2.5c0.8,0,1.4,0.2,1.8,0.5
		s0.6,0.9,0.6,1.5c0,0.5-0.2,1-0.5,1.3c-0.3,0.3-0.7,0.6-1.3,0.7c0.2,0,0.4,0.1,0.5,0.2c0.1,0.1,0.3,0.3,0.4,0.5l0.9,1.4
		C37.7,10.1,37.7,10.2,37.7,10.3z M36,6.7c0.2-0.2,0.3-0.5,0.3-0.8c0-0.4-0.1-0.7-0.3-0.8c-0.2-0.2-0.6-0.3-1.1-0.3h-1.7V7h1.7
		C35.4,7,35.7,6.9,36,6.7z"/>
	<path class="st1" d="M39.9,10.1c-0.5-0.5-0.7-1.2-0.7-2.2V4.4c0-0.2,0.1-0.3,0.2-0.5c0.1-0.1,0.3-0.2,0.5-0.2
		c0.2,0,0.3,0.1,0.5,0.2c0.1,0.1,0.2,0.3,0.2,0.5V8c0,0.6,0.1,1,0.4,1.4c0.3,0.3,0.7,0.5,1.2,0.5c0.5,0,0.9-0.2,1.2-0.5
		c0.3-0.3,0.4-0.8,0.4-1.3V4.4c0-0.2,0.1-0.3,0.2-0.5c0.1-0.1,0.3-0.2,0.5-0.2c0.2,0,0.3,0.1,0.5,0.2c0.1,0.1,0.2,0.3,0.2,0.5V8
		c0,0.9-0.2,1.7-0.7,2.1c-0.5,0.5-1.2,0.7-2.2,0.7C41.1,10.8,40.3,10.6,39.9,10.1z"/>
	<path class="st1" d="M47.6,10.6c-0.4-0.1-0.8-0.3-1.1-0.5c-0.2-0.1-0.2-0.3-0.2-0.5c0-0.1,0-0.3,0.1-0.4s0.2-0.2,0.3-0.2
		c0.1,0,0.3,0,0.4,0.1c0.3,0.2,0.6,0.4,0.9,0.4s0.6,0.1,1,0.1c0.5,0,0.8-0.1,1.1-0.3c0.3-0.2,0.4-0.4,0.4-0.7c0-0.2-0.1-0.4-0.4-0.6
		S49.5,8,49,7.9c-0.6-0.1-1-0.3-1.4-0.4c-0.4-0.2-0.6-0.4-0.8-0.6c-0.2-0.3-0.3-0.6-0.3-1c0-0.4,0.1-0.8,0.3-1.1
		c0.2-0.3,0.5-0.6,1-0.8c0.4-0.2,0.9-0.3,1.4-0.3c0.9,0,1.7,0.2,2.3,0.7c0.1,0.1,0.1,0.1,0.2,0.2s0.1,0.2,0.1,0.3
		c0,0.1,0,0.3-0.1,0.4s-0.2,0.2-0.3,0.2c-0.1,0-0.1,0-0.2,0s-0.1-0.1-0.2-0.1c-0.3-0.2-0.5-0.3-0.8-0.4c-0.3-0.1-0.6-0.1-0.9-0.1
		c-0.4,0-0.8,0.1-1.1,0.3c-0.3,0.2-0.4,0.4-0.4,0.8c0,0.3,0.1,0.5,0.3,0.6c0.2,0.1,0.6,0.3,1.2,0.4c0.6,0.1,1.1,0.3,1.4,0.4
		s0.6,0.4,0.8,0.6s0.3,0.6,0.3,0.9c0,0.4-0.1,0.8-0.3,1.1c-0.2,0.3-0.5,0.6-1,0.7c-0.4,0.2-0.9,0.3-1.4,0.3
		C48.6,10.8,48.1,10.8,47.6,10.6z"/>
	<path class="st1" d="M58,10.6c-0.1-0.1-0.2-0.3-0.2-0.5V4.9H56c-0.4,0-0.6-0.2-0.6-0.5c0-0.3,0.2-0.5,0.6-0.5h4.8
		c0.4,0,0.6,0.2,0.6,0.5c0,0.3-0.2,0.5-0.6,0.5h-1.8v5.3c0,0.2-0.1,0.3-0.2,0.5c-0.1,0.1-0.3,0.2-0.5,0.2
		C58.3,10.8,58.1,10.7,58,10.6z"/>
	<path class="st1" d="M68,10.3c0,0.2-0.1,0.3-0.2,0.4c-0.1,0.1-0.3,0.2-0.4,0.2c-0.1,0-0.2,0-0.3-0.1c-0.1-0.1-0.2-0.1-0.2-0.3
		l-0.6-1.3h-3.5l-0.6,1.3c-0.1,0.1-0.1,0.2-0.2,0.3c-0.1,0.1-0.2,0.1-0.3,0.1c-0.2,0-0.3-0.1-0.4-0.2c-0.1-0.1-0.2-0.2-0.2-0.4
		c0-0.1,0-0.2,0.1-0.3l2.7-5.8C63.9,4,64,3.9,64.2,3.9c0.1-0.1,0.3-0.1,0.4-0.1s0.3,0,0.4,0.1s0.2,0.2,0.3,0.3l2.7,5.8
		C68,10.1,68,10.2,68,10.3z M63.3,8.2h2.6l-1.3-2.9L63.3,8.2z"/>
	<path class="st1" d="M69.4,10.6c-0.1-0.1-0.2-0.2-0.2-0.4V4.4c0-0.2,0.1-0.3,0.2-0.5s0.3-0.2,0.5-0.2c0.2,0,0.4,0.1,0.5,0.2
		c0.1,0.1,0.2,0.3,0.2,0.5v5.3h2.8c0.4,0,0.6,0.2,0.6,0.5c0,0.3-0.2,0.5-0.6,0.5h-3.4C69.6,10.8,69.5,10.7,69.4,10.6z"/>
	<path class="st1" d="M81.3,10.3c0,0.2-0.1,0.3-0.2,0.4c-0.1,0.1-0.3,0.2-0.4,0.2c-0.1,0-0.2,0-0.3-0.1c-0.1-0.1-0.2-0.1-0.2-0.3
		l-0.6-1.3h-3.5l-0.6,1.3c-0.1,0.1-0.1,0.2-0.2,0.3c-0.1,0.1-0.2,0.1-0.3,0.1c-0.2,0-0.3-0.1-0.4-0.2c-0.1-0.1-0.2-0.2-0.2-0.4
		c0-0.1,0-0.2,0.1-0.3l2.7-5.8c0.1-0.1,0.1-0.2,0.3-0.3c0.1-0.1,0.3-0.1,0.4-0.1s0.3,0,0.4,0.1s0.2,0.2,0.3,0.3l2.7,5.8
		C81.2,10.1,81.3,10.2,81.3,10.3z M76.5,8.2h2.6l-1.3-2.9L76.5,8.2z M77.8,3.3c-0.1,0-0.2,0-0.2-0.1S77.5,3.1,77.5,3
		c0-0.1,0-0.1,0.1-0.2l0.9-0.9c0.1-0.1,0.3-0.2,0.4-0.2c0.1,0,0.2,0,0.3,0.1c0.1,0.1,0.1,0.2,0.1,0.3c0,0.1,0,0.2-0.1,0.2
		s-0.1,0.1-0.3,0.2L78,3.2C77.9,3.3,77.9,3.3,77.8,3.3z"/>
	<path class="st1" d="M82.7,10.6c-0.1-0.1-0.2-0.2-0.2-0.4V4.4c0-0.2,0.1-0.3,0.2-0.5s0.3-0.2,0.5-0.2c0.2,0,0.4,0.1,0.5,0.2
		c0.1,0.1,0.2,0.3,0.2,0.5v5.3h2.8c0.4,0,0.6,0.2,0.6,0.5c0,0.3-0.2,0.5-0.6,0.5h-3.4C82.9,10.8,82.8,10.7,82.7,10.6z"/>
	<path class="st1" d="M93.8,10.2c0,0.2-0.1,0.3-0.2,0.4c-0.1,0.1-0.3,0.2-0.4,0.2c-0.2,0-0.3-0.1-0.5-0.2l-3.3-3.1v2.7
		c0,0.2-0.1,0.3-0.2,0.5c-0.1,0.1-0.3,0.2-0.5,0.2c-0.2,0-0.3-0.1-0.5-0.2c-0.1-0.1-0.2-0.3-0.2-0.5V4.4c0-0.2,0.1-0.3,0.2-0.5
		s0.3-0.2,0.5-0.2c0.2,0,0.4,0.1,0.5,0.2c0.1,0.1,0.2,0.3,0.2,0.5v2.5l3.2-3c0.1-0.1,0.3-0.2,0.4-0.2c0.2,0,0.3,0.1,0.4,0.2
		s0.2,0.2,0.2,0.4c0,0.2-0.1,0.3-0.2,0.4l-2.6,2.4l2.8,2.6C93.8,9.9,93.8,10.1,93.8,10.2z"/>
	<path class="st1" d="M96.1,10.4c-0.5-0.3-0.9-0.7-1.1-1.2c-0.3-0.5-0.4-1.2-0.4-1.9c0-0.7,0.1-1.3,0.4-1.9c0.3-0.5,0.6-0.9,1.1-1.2
		s1.1-0.4,1.8-0.4c0.7,0,1.3,0.1,1.8,0.4c0.5,0.3,0.9,0.7,1.1,1.2c0.3,0.5,0.4,1.2,0.4,1.9c0,0.7-0.1,1.3-0.4,1.9
		c-0.3,0.5-0.7,1-1.1,1.2c-0.5,0.3-1.1,0.4-1.7,0.4C97.2,10.8,96.6,10.7,96.1,10.4z M99.4,9.2c0.4-0.4,0.5-1.1,0.5-1.9
		c0-0.8-0.2-1.4-0.5-1.9C99,5,98.5,4.8,97.9,4.8c-0.6,0-1.1,0.2-1.5,0.7c-0.4,0.4-0.5,1.1-0.5,1.9c0,0.8,0.2,1.4,0.5,1.9
		c0.4,0.4,0.9,0.7,1.5,0.7C98.5,9.8,99,9.6,99.4,9.2z"/>
	<path class="st1" d="M107.5,10.2c0,0.3-0.2,0.5-0.6,0.5h-4.2c-0.2,0-0.3-0.1-0.4-0.2s-0.2-0.2-0.2-0.4s0.1-0.3,0.2-0.5l3.5-4.9
		h-3.1c-0.4,0-0.6-0.2-0.6-0.5c0-0.3,0.2-0.5,0.6-0.5h4.1c0.2,0,0.3,0.1,0.4,0.2c0.1,0.1,0.2,0.2,0.2,0.4c0,0.2-0.1,0.3-0.2,0.5
		l-3.5,4.9h3.2C107.3,9.7,107.5,9.9,107.5,10.2z"/>
	<path class="st1" d="M110,10.4c-0.5-0.3-0.9-0.7-1.1-1.2c-0.3-0.5-0.4-1.2-0.4-1.9c0-0.7,0.1-1.3,0.4-1.9c0.3-0.5,0.6-0.9,1.1-1.2
		s1.1-0.4,1.8-0.4c0.7,0,1.3,0.1,1.8,0.4c0.5,0.3,0.9,0.7,1.1,1.2c0.3,0.5,0.4,1.2,0.4,1.9c0,0.7-0.1,1.3-0.4,1.9
		c-0.3,0.5-0.7,1-1.1,1.2c-0.5,0.3-1.1,0.4-1.7,0.4C111.1,10.8,110.5,10.7,110,10.4z M113.2,9.2c0.4-0.4,0.5-1.1,0.5-1.9
		c0-0.8-0.2-1.4-0.5-1.9c-0.4-0.4-0.9-0.7-1.5-0.7c-0.6,0-1.1,0.2-1.5,0.7c-0.4,0.4-0.5,1.1-0.5,1.9c0,0.8,0.2,1.4,0.5,1.9
		c0.4,0.4,0.9,0.7,1.5,0.7C112.4,9.8,112.9,9.6,113.2,9.2z M111.7,3.3c-0.1,0-0.2,0-0.2-0.1c-0.1-0.1-0.1-0.1-0.1-0.2
		c0-0.1,0-0.1,0.1-0.2l0.9-0.9c0.1-0.1,0.3-0.2,0.4-0.2c0.1,0,0.2,0,0.3,0.1c0.1,0.1,0.1,0.2,0.1,0.3c0,0.1,0,0.2-0.1,0.2
		s-0.1,0.1-0.3,0.2l-1.1,0.6C111.8,3.3,111.8,3.3,111.7,3.3z"/>
	<path class="st1" d="M121.4,10.6c-0.1-0.1-0.2-0.3-0.2-0.5V4.9h-1.8c-0.4,0-0.6-0.2-0.6-0.5c0-0.3,0.2-0.5,0.6-0.5h4.8
		c0.4,0,0.6,0.2,0.6,0.5c0,0.3-0.2,0.5-0.6,0.5h-1.8v5.3c0,0.2-0.1,0.3-0.2,0.5c-0.1,0.1-0.3,0.2-0.5,0.2
		C121.6,10.8,121.5,10.7,121.4,10.6z"/>
	<path class="st1" d="M131.4,10.3c0,0.2-0.1,0.3-0.2,0.4c-0.1,0.1-0.3,0.2-0.4,0.2c-0.1,0-0.2,0-0.3-0.1c-0.1-0.1-0.2-0.1-0.2-0.3
		l-0.6-1.3h-3.5l-0.6,1.3c-0.1,0.1-0.1,0.2-0.2,0.3c-0.1,0.1-0.2,0.1-0.3,0.1c-0.2,0-0.3-0.1-0.4-0.2c-0.1-0.1-0.2-0.2-0.2-0.4
		c0-0.1,0-0.2,0.1-0.3l2.7-5.8c0.1-0.1,0.1-0.2,0.3-0.3s0.3-0.1,0.4-0.1s0.3,0,0.4,0.1s0.2,0.2,0.3,0.3l2.7,5.8
		C131.4,10.1,131.4,10.2,131.4,10.3z M126.6,8.2h2.6l-1.3-2.9L126.6,8.2z"/>
	<path class="st1" d="M132.8,10.6c-0.1-0.1-0.2-0.3-0.2-0.5V4.4c0-0.2,0.1-0.3,0.2-0.4c0.1-0.1,0.3-0.2,0.4-0.2h2.4
		c0.7,0,1.3,0.2,1.7,0.6s0.6,0.9,0.6,1.6c0,0.7-0.2,1.2-0.6,1.6s-1,0.6-1.7,0.6h-1.8v2.1c0,0.2-0.1,0.4-0.2,0.5
		c-0.1,0.1-0.3,0.2-0.5,0.2C133.1,10.8,132.9,10.8,132.8,10.6z M135.5,7.1c0.9,0,1.3-0.4,1.3-1.1s-0.4-1.1-1.3-1.1h-1.6v2.3H135.5z"
		/>
	<path class="st1" d="M140.7,10.4c-0.5-0.3-0.9-0.7-1.1-1.2c-0.3-0.5-0.4-1.2-0.4-1.9c0-0.7,0.1-1.3,0.4-1.9
		c0.3-0.5,0.6-0.9,1.1-1.2s1.1-0.4,1.8-0.4c0.7,0,1.3,0.1,1.8,0.4c0.5,0.3,0.9,0.7,1.1,1.2c0.3,0.5,0.4,1.2,0.4,1.9
		c0,0.7-0.1,1.3-0.4,1.9c-0.3,0.5-0.7,1-1.1,1.2c-0.5,0.3-1.1,0.4-1.7,0.4C141.8,10.8,141.2,10.7,140.7,10.4z M143.9,9.2
		c0.4-0.4,0.5-1.1,0.5-1.9c0-0.8-0.2-1.4-0.5-1.9c-0.4-0.4-0.9-0.7-1.5-0.7c-0.6,0-1.1,0.2-1.5,0.7c-0.4,0.4-0.5,1.1-0.5,1.9
		c0,0.8,0.2,1.4,0.5,1.9c0.4,0.4,0.9,0.7,1.5,0.7C143.1,9.8,143.6,9.6,143.9,9.2z"/>
	<path class="st1" d="M147.5,10.6c-0.1-0.1-0.2-0.2-0.2-0.4V4.4c0-0.2,0.1-0.3,0.2-0.5s0.3-0.2,0.5-0.2c0.2,0,0.4,0.1,0.5,0.2
		c0.1,0.1,0.2,0.3,0.2,0.5v5.3h2.8c0.4,0,0.6,0.2,0.6,0.5c0,0.3-0.2,0.5-0.6,0.5h-3.4C147.7,10.8,147.6,10.7,147.5,10.6z"/>
	<path class="st1" d="M154,10.4c-0.5-0.3-0.9-0.7-1.2-1.2c-0.3-0.5-0.4-1.2-0.4-1.9c0-0.7,0.1-1.3,0.4-1.9c0.3-0.5,0.7-0.9,1.2-1.2
		s1.1-0.4,1.8-0.4c0.4,0,0.8,0.1,1.2,0.2c0.4,0.1,0.7,0.3,1,0.6c0.1,0.1,0.1,0.1,0.2,0.2c0,0.1,0,0.2,0,0.3c0,0.1,0,0.3-0.1,0.4
		c-0.1,0.1-0.2,0.1-0.3,0.1c-0.1,0-0.3,0-0.4-0.1c-0.3-0.2-0.5-0.4-0.8-0.4c-0.2-0.1-0.5-0.1-0.8-0.1c-0.7,0-1.2,0.2-1.5,0.6
		c-0.4,0.4-0.5,1.1-0.5,1.9c0,0.8,0.2,1.5,0.5,1.9s0.9,0.6,1.5,0.6c0.3,0,0.5,0,0.8-0.1c0.2-0.1,0.5-0.2,0.8-0.4
		c0.1,0,0.1-0.1,0.2-0.1c0.1,0,0.1,0,0.2,0c0.1,0,0.2,0,0.3,0.1c0.1,0.1,0.1,0.2,0.1,0.4c0,0.1,0,0.2,0,0.3c0,0.1-0.1,0.1-0.2,0.2
		c-0.3,0.2-0.6,0.4-1,0.6c-0.4,0.1-0.8,0.2-1.2,0.2C155.1,10.8,154.5,10.7,154,10.4z"/>
	<path class="st1" d="M165.9,10.3c0,0.2-0.1,0.3-0.2,0.4c-0.1,0.1-0.3,0.2-0.4,0.2c-0.1,0-0.2,0-0.3-0.1c-0.1-0.1-0.2-0.1-0.2-0.3
		l-0.6-1.3h-3.5l-0.6,1.3c-0.1,0.1-0.1,0.2-0.2,0.3c-0.1,0.1-0.2,0.1-0.3,0.1c-0.2,0-0.3-0.1-0.4-0.2c-0.1-0.1-0.2-0.2-0.2-0.4
		c0-0.1,0-0.2,0.1-0.3l2.7-5.8c0.1-0.1,0.1-0.2,0.3-0.3s0.3-0.1,0.4-0.1s0.3,0,0.4,0.1s0.2,0.2,0.3,0.3l2.7,5.8
		C165.9,10.1,165.9,10.2,165.9,10.3z M161.1,8.2h2.6l-1.3-2.9L161.1,8.2z"/>
</g>
<g>
	<path class="st1" d="M166,16.4c-0.6-0.9-1.5-1.3-2.6-1.5c-2.9-0.4-6.1,0.4-9-0.7c-15.1-0.2-30.1-0.6-45.4-0.7
		c-2.8,0-4.8,0.4-5.9,3.1l-0.2,0.2c-0.6,0.7-1.3,1.3-2.2,1.1c-1.1,0-2.4,0-3.5-0.2c-3.9-0.4-7.9-0.7-11.8-0.4
		c-1.8,0.2-3.7,0.2-5.5,0.6c-1.8,0.2-3.1-0.6-3.9-2.2c-0.9-1.8-2.4-2.4-4.2-2.4c-0.6,0-1.3,0-1.8,0c-9.5,0.2-19.1,0.2-28.8,0.6
		c-6.1,0.2-12.1-0.4-18,0.7c-2.2,0.4-4.6,0.2-6.8,0.2c-1.1,0-2,0.4-2.6,1.5c0,0.4,0,0.7,0,1.1c0.4,0.7,0.9,1.5,0.4,2.6
		c-0.6,0.9,0,1.7,0.9,2.2c0.9,0.4,1.8,0.6,2.8,0.7c0.7,0.2,1.5,0.4,1.8,0.9c0.2,0.2,0.7,0.4,1.1,0.6c2.4,0.2,5,0.4,7.3,0.6
		c0.6,0,0.9,0.2,1.1,0.7c0.4,0.9,1.1,1.5,2,1.5c1.8,0.2,3.9,0.2,5.7,0.4c0.4,0,0.7,0,0.9,0.2c1.3,1.1,2.8,1.5,4.2,1.7
		c1.5,0.2,2.9,0.2,4.4,0.2c0.4,0,0.9,0.2,1.1,0.6c0.9,1.1,2.2,1.7,3.7,1.7c9.2,0.4,18.4,0.7,27.5,1.1c3.3,0.2,6.4,0.2,9.5,1.3
		c0.2,0,0.4,0.2,0.4,0.2c0.6,0,1.1,0,1.7,0c2-0.4,4-1.1,6.2-1.1c6.8-0.4,13.8-0.6,20.6-0.9c3.7-0.2,7.3-0.4,11-0.4
		c1.5,0,2.8-0.6,3.7-1.7c0.2-0.4,0.7-0.6,1.1-0.6c1.8-0.2,3.7-0.2,5.5-0.6c1.1-0.2,2-0.9,2.9-1.3c0.4-0.2,0.6-0.2,0.9-0.4
		c1.8-0.2,3.7-0.2,5.5-0.4c1.1,0,2-0.6,2.4-1.7c0.2-0.2,0.6-0.6,0.9-0.6c2.6-0.2,5-0.4,7.5-0.6c0.4,0,0.9-0.2,1.1-0.6
		c0.6-0.7,1.1-0.9,1.8-0.9c0.9-0.2,2-0.4,2.9-0.9c0.7-0.4,1.3-1.3,0.7-2c-0.6-0.9,0-1.7,0.4-2.4C166,17.2,166,16.8,166,16.4z
		 M26.1,15c4.4,0,8.6,0,13-0.2c10.3-0.2,20.6-0.4,30.8-0.4c0.7,0,1.3,0,2,0c1.8,0,3.1,0.6,4,2.4c0.7,1.7,2.2,2.2,3.9,2
		c1.8-0.2,3.9-0.4,5.7-0.6c4-0.4,7.9-0.2,11.8,0.4c1.1,0.2,2.2,0.2,3.5,0.2c1.3,0,2.6-0.6,3.1-1.8c0.9-2,2.6-2.6,4.6-2.6
		c8.4,0.2,16.9,0.2,25.3,0.4c6.4,0,13,0.2,19.5,0.2c0.7,0,1.3,0.2,2,0.2c0,0.2,0,0.4,0,0.6c-0.4,0-0.9,0.2-1.3,0.2
		c-2.8,0-5.7,0-8.4,0c-12.1,0-24.2,0-36.4,0c-0.9,0-1.8,0.2-2.6,0.4c-0.7,0.2-1.1,0.6-1.1,1.7c0.7-0.4,1.3-0.7,1.8-1.3
		c0.2,1.1,0,1.7-0.7,2.2c-0.6,0.4-1.3,0.6-2,0.9c1.3,0.6,3.3-0.6,3.5-1.8c0.2-1.1,0.7-1.3,1.8-1.3c0.9,0,1.8,0,2.9,0
		c-0.7,2.2-2.2,3.1-4.2,3.7c-0.9,0.2-1.8,0.4-2.6,1.5c-0.9,1.1-2.4,1.3-3.9,1.3c-1.1,0-2.4,0-3.5,0c-0.7,0-1.3,0.2-1.7,1.1
		c-0.4,0.9-1.1,1.3-2,1.3c-3.5,0-7.2,0-10.6,0c-0.9,0-1.7-0.4-1.8-1.3C82.3,23.2,81.7,23,81,23c-1.5,0-3.1,0-4.6-0.2
		c-1.3-0.2-2.6-0.6-3.3-1.8c-0.2-0.2-0.6-0.4-0.9-0.4c-0.9-0.4-2-0.6-2.9-0.9c-1.1-0.6-1.8-1.5-2.2-2.9c1.5,0,2.6,0,3.9,0
		c0.2,0,0.6,0.6,0.6,0.9c0.4,1.3,2,2.4,3.3,2.4c0,0,0.2-0.2,0.4-0.2c-1.1-0.7-3.1-0.7-2.9-3.1c0.7,0.4,1.3,0.7,2,1.1
		c0.2-0.9-0.4-1.3-1.1-1.5c-0.7-0.2-1.7-0.4-2.4-0.4c-14.7,0-29.2,0.2-43.9,0.2c-0.7,0-1.5,0-2.4-0.2c0-0.2,0-0.4,0-0.6
		C25,15.1,25.6,15,26.1,15z M101.9,25.6c-0.2,0-0.4,0-0.6,0c-2,1.7-4.6,1.3-7,2c-5,1.3-9.7,0.4-14.3-1.1c-4.6-1.5-9.2-1.5-13.8-2
		c-4.4-0.7-8.6-0.9-13-1.5c-1.5-0.2-2.8-0.6-3.9-1.8c0.6,0,0.9,0,1.3,0c7,0.2,14.1,0.4,21.1,0.7c0.4,0,0.9,0,1.3,0.4
		c1.5,1.1,2.9,1.1,4.6,1.3c0.7,0,1.5,0,2.2,0c0.9,0,1.7,0.2,2.2,1.3c0.6,0.7,1.7,0.9,2.4,0.9c3.7,0,7.3,0,11,0c0.2,0,0.4,0,0.6,0
		c0.9-0.2,1.5-0.6,1.8-1.5c0.2-0.4,0.7-0.7,1.3-0.7c1.5-0.2,3.1-0.2,4.6-0.4c0.9-0.2,1.8-0.6,2.6-0.9c0.4-0.2,0.7-0.4,1.3-0.4
		c7.3-0.2,14.7-0.6,22.2-0.7c0.2,0,0.4,0,0.6,0c-0.7,1.1-1.8,1.5-2.9,1.7c-2.9,0.4-5.9,0.9-8.8,1.1C113,24.5,107.4,25.1,101.9,25.6z
		 M112.6,25.2c-0.6,1.1-1.5,1.8-2.6,2c-1.8,0.6-3.9,0.9-5.7,1.3c-3.3,0.6-6.6,1.1-9.7,1.7c-3.1,0.6-6.2,0.6-9.2,0
		c-4.2-0.7-8.6-1.3-12.9-2c-1.1-0.2-2.4-0.7-3.5-1.1c-0.6-0.4-1.1-0.9-1.7-1.5c0-0.2,0.2-0.2,0.2-0.4c2.6,0.2,5,0.6,7.5,0.7
		c1.7,0.2,3.3,0.7,5,1.3c5.3,1.7,11,2.4,16.5,0.9c1.8-0.6,3.7-0.6,5.3-1.7c0.2-0.2,0.4-0.2,0.6-0.2c3.3-0.4,6.4-0.7,9.7-0.9
		C112.2,25.1,112.2,25.2,112.6,25.2z M16,15.9c1.5-0.2,3.1-0.2,4.6-0.2c1.3,0,2.6-0.2,3.9,0.6c0.6,0.4,1.5,0.2,2.2,0.2
		c11.6,0,23.3,0,34.9,0c1.3,0,2.6,0,3.7,0.2c0.4,0,0.9,0.4,0.9,0.6c0.9,2,2.4,3.1,4.6,3.5c0.6,0,0.9,0.2,1.5,0.4c0,0.2,0,0.2,0,0.4
		c-0.4,0-0.6,0-0.9,0c-7-0.2-14.1-0.6-21.1-0.7c-11-0.4-22.2-0.9-33.2-1.5c-0.7,0-1.5-0.2-2-0.9C14.4,17.2,14.7,15.9,16,15.9z
		 M16.6,21.9c-0.4,0-0.9-0.2-1.1-0.6c-0.2-0.4-0.6-0.9-0.4-1.3c0-0.4,0.6-0.6,0.9-0.7c0.6-0.2,0.9,0,1.5,0
		c9.2,0.4,18.2,0.9,27.4,1.3c0.6,0,1.1,0,1.7,0c1.3,0,2.4,0.4,3.5,1.5c0.7,0.7,2,0.9,3.1,1.3c0.4,0.2,0.9,0.2,1.3,0.2v0.2
		c-2.9-0.2-5.9-0.4-8.6-0.4c-8.4-0.4-17.1-0.7-25.5-1.1C18.9,22.3,17.7,22.1,16.6,21.9z M21.7,23.8c-0.4,0-0.9-0.2-1.3-0.4
		c0-0.2,0-0.2,0-0.4c0.4,0,0.6,0,0.9,0c9.2,0.4,18.5,0.7,27.7,1.3c5.3,0.2,10.6,0.4,15.8,0.7c0.7,0,1.5,0,1.8,1.1c-0.7,0-1.5,0-2,0
		c-9.2-0.4-18.5-0.9-27.7-1.3C32,24.5,26.8,24.1,21.7,23.8z M34.5,26.7c-0.9,0-1.8,0-2.8-0.2c-0.7-0.2-1.7-0.4-1.7-1.7
		c3.5,0.2,6.8,0.4,10.1,0.6c8.4,0.4,17.1,0.7,25.5,1.1c1.5,0,2.8,0.4,4,1.7c-0.4,0-0.6,0-0.9,0C57.5,27.6,46.1,27.3,34.5,26.7z
		 M43.7,28.7c-0.9,0-2-0.2-2.9-0.4c-0.6,0-0.9-0.4-1.3-0.6v-0.2c0.6,0,0.9,0,1.5,0c10.3,0.4,20.6,0.9,30.8,1.3c1.1,0,2.2,0,3.3,0
		c0.6,0,1.1,0.4,1.7,0.7c0,0.2-0.2,0.2-0.2,0.4c-1.5,0-2.9,0-4.4,0C62.6,29.6,53.1,29.3,43.7,28.7z M77.7,32.2
		c-7.3-0.4-14.9-0.6-22.2-0.9c-1.3,0-2.6,0-3.9-0.2c-1.1,0-2-0.4-2.8-1.3c0-0.2,0-0.2,0.2-0.4c3.7,0.2,7.3,0.4,10.8,0.6
		c5.3,0.2,10.6,0.4,15.8,0.6c1.3,0,2.6,0.2,3.7,1.5C78.6,32.2,78.2,32.2,77.7,32.2z M94.8,32.8c-3.1,0.9-6.2,0.9-9.4,0
		c-1.8-0.6-3.7-0.7-5.5-1.3c-1.1-0.4-2-0.7-2.6-2.2c1.1,0.2,2.2,0.2,3.3,0.4c1.8,0.4,3.7,0.6,5.5,1.1c3.1,0.7,6.2,0.4,9.4-0.2
		c1.8-0.4,3.9-0.7,5.7-1.1c0.6,0,0.9,0,1.7-0.2c-0.6,1.1-1.3,1.7-2.4,2C98.6,31.8,96.6,32,94.8,32.8z M130.6,30.6
		c-0.7,0.2-1.7,0.6-2.6,0.6c-8.4,0.4-16.7,0.7-25.2,1.1c-0.6,0-1.3,0-2.2,0c1.1-0.9,2-1.3,3.3-1.5c6.2-0.2,12.5-0.4,18.7-0.7
		c2.9-0.2,5.7-0.4,8.6-0.2C131.1,30,130.8,30.4,130.6,30.6z M139.8,28.4c-1.1,0.2-2.4,0.6-3.7,0.6c-10.3,0.6-20.6,0.9-30.7,1.3
		c-0.6,0-1.3,0-2,0c0.6-1.1,1.3-1.1,2-1.1c3.1-0.2,6.1-0.2,9.2-0.4c8.3-0.4,16.5-0.7,24.8-0.9c0.4,0,0.7,0,1.3,0.2
		C140.3,28,139.9,28.2,139.8,28.4z M148.2,26.5c-0.9,0.2-1.8,0.2-2.8,0.2c-11.4,0.6-23,0.9-34.3,1.5c-0.2,0-0.4,0-0.9,0
		c1.3-0.9,2.2-1.5,3.7-1.7c11.6-0.6,23.3-1.1,34.9-1.5c0.4,0,0.7,0,1.1,0C149.7,26.2,148.9,26.5,148.2,26.5z M158.3,23.8
		c-5.9,0.4-11.9,0.7-17.8,1.1c-8.4,0.4-16.9,0.7-25.3,1.3c-0.7,0-1.3,0-2.2,0c0.2-1.1,0.9-1.1,1.7-1.1c3.1-0.2,6.2-0.2,9.4-0.4
		c7.9-0.4,16-0.7,23.9-1.1c3.5-0.2,7.2-0.4,10.6-0.4c0.4,0,0.6,0,0.9,0c0,0.2,0,0.2,0.2,0.4C159.2,23.6,158.9,23.8,158.3,23.8z
		 M163.8,21.9c-1.1,0.2-2.2,0.6-3.3,0.6c-11.2,0.6-22.4,1.1-33.6,1.5c-0.4,0-0.7,0-0.9,0v-0.2c0.4,0,0.9-0.2,1.3-0.2
		c1.5-0.2,2.9-0.6,3.9-1.8c0.4-0.4,0.9-0.6,1.5-0.6c8.1-0.6,16.2-0.9,24.4-1.3c2.2-0.2,4.4-0.2,6.6-0.2c0.7,0,1.5,0,1.7,0.9
		C165.1,21.2,164.5,21.7,163.8,21.9z M163.1,19c-4.6,0.2-9.2,0.4-13.6,0.6c-11.8,0.6-23.5,1.1-35.3,1.7c-2.2,0-4.2,0-6.4,0V21
		c0.6-0.2,1.1-0.4,1.7-0.4c2.2-0.4,3.7-1.5,4.4-3.5c0.2-0.7,0.7-0.7,1.3-0.7c8.6,0,17.1,0,25.7,0c4.6,0,9.2,0,13.6,0
		c0.7,0,1.3-0.4,2-0.6c0.2,0,0.4-0.2,0.7-0.2c2.2,0,4.2,0,6.4,0c1.7,0,2,0.4,2,1.5C165.3,18.3,164.4,19,163.1,19z"/>
	<path class="st1" d="M81.6,20.5c1.8,0,3.7,0,5.5,0s2.6,0.7,2.6,2.6c0,0.4,0.2,0.7,0.2,1.1c0.2,0,0.2,0,0.4,0c0-0.4,0-0.6,0-0.9
		c0-2,0.7-2.8,2.8-2.8c1.8,0,3.5,0,5.3,0c0.4,0,0.6,0,0.9,0c0-0.2,0-0.2,0-0.4c-0.4,0-0.6-0.2-0.9-0.2c-1.5,0-2.9,0-4.4,0
		s-2.9-0.2-3.9,1.5c-0.9-1.3-1.8-1.7-3.1-1.5c-1.8,0-3.5,0-5.3,0c-0.4,0-0.6,0-0.9,0.2c0,0.2,0,0.2,0,0.4
		C81,20.5,81.4,20.5,81.6,20.5z"/>
</g>
</svg>
